Coordinates
version=1
nRows=12
nColumns=24
inDegrees=yes

Units are S.I. units (second, meters, Newtons, ...)
Angles are in degrees.

endheader
time	pelvis_tilt	pelvis_list	pelvis_rotation	pelvis_tx	pelvis_ty	pelvis_tz	hip_flexion_r	hip_adduction_r	hip_rotation_r	knee_angle_r	ankle_angle_r	subtalar_angle_r	mtp_angle_r	hip_flexion_l	hip_adduction_l	hip_rotation_l	knee_angle_l	ankle_angle_l	subtalar_angle_l	mtp_angle_l	lumbar_extension	lumbar_bending	lumbar_rotation
     14.52500000	      0.66392139	     29.48311218	     89.69121504	      0.33957255	      0.99598408	     -1.24135131	     58.54123882	    -19.86823645	     -8.21842870	    -78.32868867	    -19.31803881	      0.00000000	      0.00000000	     64.50879048	    -16.56920047	    -35.81622615	    -28.87714663	    -24.34697169	      0.00000000	      0.00000000	    -26.11490583	      0.72438332	     -1.19409975
     14.53333333	      0.66590348	     29.48326162	     89.69184971	      0.33956711	      0.99595981	     -1.24134989	     58.54160741	    -19.86877036	     -8.21792616	    -78.32859451	    -19.31822031	      0.00000000	      0.00000000	     64.50803508	    -16.56960294	    -35.81614024	    -28.87713102	    -24.34711132	      0.00000000	      0.00000000	    -26.11432638	      0.72365225	     -1.19469082
     14.54166667	      0.66582884	     29.48385822	     89.69201246	      0.33955799	      0.99596708	     -1.24135299	     58.54180125	    -19.86883783	     -8.21787060	    -78.32853275	    -19.31827439	      0.00000000	      0.00000000	     64.50837125	    -16.56996081	    -35.81610176	    -28.87685626	    -24.34716532	      0.00000000	      0.00000000	    -26.11421740	      0.72365113	     -1.19493342
     14.55000000	      0.66574964	     29.48445876	     89.69217878	      0.33956001	      0.99596897	     -1.24136127	     58.54203572	    -19.86892265	     -8.21779169	    -78.32834466	    -19.31832807	      0.00000000	      0.00000000	     64.50872443	    -16.57021534	    -35.81609960	    -28.87659607	    -24.34721908	      0.00000000	      0.00000000	    -26.11418858	      0.72373826	     -1.19517492
     14.55833333	      0.66574964	     29.48445876	     89.69217878	      0.33956001	      0.99596897	     -1.24136127	     58.54203572	    -19.86892265	     -8.21779169	    -78.32834466	    -19.31832807	      0.00000000	      0.00000000	     64.50872443	    -16.57021534	    -35.81609960	    -28.87659607	    -24.34721908	      0.00000000	      0.00000000	    -26.11418858	      0.72373826	     -1.19517492
     14.56666667	      0.66718069	     29.48592239	     89.69518159	      0.33957499	      0.99596007	     -1.24137628	     58.54368771	    -19.87157448	     -8.21591371	    -78.32676404	    -19.31872361	      0.00000000	      0.00000000	     64.50878497	    -16.57531399	    -35.81479156	    -28.87440722	    -24.34761656	      0.00000000	      0.00000000	    -26.11391242	      0.72397827	     -1.19687781
     14.57500000	      0.66722253	     29.48531928	     89.69517209	      0.33956851	      0.99594195	     -1.24137595	     58.54369726	    -19.87155053	     -8.21602649	    -78.32677327	    -19.31877794	      0.00000000	      0.00000000	     64.50822652	    -16.57539834	    -35.81470818	    -28.87458601	    -24.34767529	      0.00000000	      0.00000000	    -26.11389304	      0.72391405	     -1.19712914
     14.58333333	      0.66738517	     29.48537730	     89.69490425	      0.33958006	      0.99594849	     -1.24136841	     58.54398661	    -19.87146349	     -8.21617916	    -78.32666309	    -19.31883113	      0.00000000	      0.00000000	     64.50802383	    -16.57489279	    -35.81481931	    -28.87485538	    -24.34773229	      0.00000000	      0.00000000	    -26.11375033	      0.72393015	     -1.19735031
     14.59166667	      0.66738517	     29.48537730	     89.69490425	      0.33958006	      0.99594849	     -1.24136841	     58.54398661	    -19.87146349	     -8.21617916	    -78.32666309	    -19.31883113	      0.00000000	      0.00000000	     64.50802383	    -16.57489279	    -35.81481931	    -28.87485538	    -24.34773229	      0.00000000	      0.00000000	    -26.11375033	      0.72393015	     -1.19735031
     14.60000000	      0.66848873	     29.48467876	     89.69382061	      0.33959549	      0.99593582	     -1.24137293	     58.54577473	    -19.87021757	     -8.21756498	    -78.32568169	    -19.31903768	      0.00000000	      0.00000000	     64.50521591	    -16.57189093	    -35.81526790	    -28.87744588	    -24.34798084	      0.00000000	      0.00000000	    -26.11304012	      0.72356233	     -1.19847514
     14.60833333	      0.66832403	     29.48462504	     89.69409761	      0.33957791	      0.99593762	     -1.24136782	     58.54617076	    -19.87002412	     -8.21780788	    -78.32547464	    -19.31908448	      0.00000000	      0.00000000	     64.50463010	    -16.57216227	    -35.81510598	    -28.87769529	    -24.34803489	      0.00000000	      0.00000000	    -26.11278721	      0.72356192	     -1.19873816
     14.61666667	      0.66832403	     29.48462504	     89.69409761	      0.33957791	      0.99593762	     -1.24136782	     58.54617076	    -19.87002412	     -8.21780788	    -78.32547464	    -19.31908448	      0.00000000	      0.00000000	     64.50463010	    -16.57216227	    -35.81510598	    -28.87769529	    -24.34803489	      0.00000000	      0.00000000	    -26.11278721	      0.72356192	     -1.19873816
